<?xml version="1.0" standalone="no"?>
<!DOCTYPE svg PUBLIC "-//W3C//DTD SVG 20010904//EN"
 "http://www.w3.org/TR/2001/REC-SVG-20010904/DTD/svg10.dtd">
<svg version="1.0" xmlns="http://www.w3.org/2000/svg"
 width="500.000000pt" height="500.000000pt" viewBox="0 0 500.000000 500.000000"
 preserveAspectRatio="xMidYMid meet">

<g transform="translate(0.000000,500.000000) scale(0.100000,-0.100000)"
fill="#242424" stroke="none">
<path d="M2275 4989 c-589 -58 -1128 -311 -1540 -724 -320 -321 -536 -696
-650 -1128 -154 -584 -92 -1195 175 -1742 148 -304 402 -623 661 -833 550
-443 1250 -635 1943 -532 981 146 1781 851 2042 1800 151 548 113 1135 -106
1647 -311 724 -934 1256 -1697 1447 -264 66 -574 90 -828 65z m450 -896 c324
-74 535 -233 673 -508 29 -59 83 -217 97 -285 l7 -35 -74 71 c-126 123 -248
193 -443 253 -210 65 -294 73 -785 81 -497 8 -486 6 -634 83 -113 59 -207 155
-270 276 l-48 92 694 -4 c657 -3 698 -5 783 -24z m430 -680 c295 -148 404
-403 310 -728 -107 -373 -361 -612 -740 -698 -82 -18 -134 -20 -562 -24 l-473
-5 0 532 0 532 68 -4 c95 -7 172 -39 241 -103 65 -61 113 -144 130 -223 6 -29
11 -102 11 -162 l0 -110 220 0 c120 0 243 5 272 11 83 17 191 74 257 134 133
124 202 354 172 578 -16 121 -43 199 -96 285 -25 41 -45 75 -45 77 0 8 168
-58 235 -92z m-775 57 c285 -45 467 -205 553 -488 l26 -84 -49 46 c-115 107
-257 171 -459 208 -99 17 -154 20 -371 19 -141 0 -282 4 -315 10 -128 23 -249
108 -314 220 -17 30 -31 60 -31 67 0 15 860 17 960 2z m348 -480 c31 -17 75
-46 97 -65 l40 -34 -110 0 -110 0 -41 84 -42 83 54 -19 c30 -10 80 -32 112
-49z m-484 -1518 c44 -108 86 -212 93 -229 l13 -33 -50 0 c-45 0 -52 3 -60 25
-9 24 -14 25 -84 25 -70 0 -74 -1 -80 -25 -6 -22 -11 -25 -56 -25 -28 0 -50 4
-50 8 0 4 37 100 83 212 46 113 86 213 90 223 3 9 10 17 14 17 4 0 44 -89 87
-198z m-1096 173 c99 -30 154 -106 154 -215 0 -65 -19 -115 -59 -154 -49 -50
-97 -66 -200 -66 l-93 0 0 225 0 225 73 0 c40 0 97 -7 125 -15z m432 -30 l0
-45 -65 0 -65 0 0 -45 0 -45 55 0 55 0 0 -45 0 -45 -55 0 -55 0 0 -45 0 -45
70 0 70 0 0 -45 0 -45 -115 0 -115 0 0 225 0 225 110 0 110 0 0 -45z m152 -47
c20 -51 39 -104 43 -117 10 -33 18 -20 63 99 l39 105 51 3 c29 2 52 0 52 -4 0
-9 -169 -426 -180 -444 -6 -10 -13 -11 -19 -5 -11 11 -181 428 -181 445 0 5
21 10 49 10 l48 0 35 -92z m1018 47 l0 -45 -65 0 -65 0 0 -45 0 -45 55 0 55 0
0 -45 0 -45 -55 0 -55 0 0 -90 0 -90 -45 0 -45 0 0 225 0 225 110 0 110 0 0
-45z m130 -180 l0 -225 -45 0 -45 0 0 225 0 225 45 0 45 0 0 -225z m294 211
c71 -29 99 -119 59 -187 -16 -27 -16 -29 1 -47 29 -33 31 -85 6 -131 -33 -58
-68 -71 -189 -71 l-101 0 0 225 0 225 95 0 c59 0 108 -5 129 -14z m356 -31 l0
-44 -67 -3 -68 -3 -3 -42 -3 -43 60 0 61 0 0 -45 0 -44 -57 -3 -58 -3 -3 -42
-3 -43 75 0 76 0 0 -45 0 -45 -120 0 -120 0 0 218 c0 120 3 222 7 225 3 4 55
7 115 7 l108 0 0 -45z m279 32 c104 -36 110 -216 9 -249 -7 -3 8 -38 40 -94
l51 -89 -41 -3 c-22 -2 -46 -1 -54 2 -7 3 -32 41 -54 86 -30 60 -45 80 -60 80
-18 0 -20 -7 -20 -85 l0 -85 -45 0 -45 0 0 225 0 225 93 -1 c50 0 107 -5 126
-12z m321 4 c27 -7 35 -29 26 -67 -6 -23 -9 -24 -56 -18 -57 7 -80 -5 -80 -42
0 -19 13 -30 67 -56 36 -18 75 -45 86 -59 38 -53 19 -144 -38 -179 -39 -24
-129 -27 -180 -6 -36 16 -39 23 -29 74 6 30 6 30 40 16 44 -18 108 -18 124 1
21 26 6 49 -50 77 -88 43 -116 83 -110 158 6 80 102 128 200 101z"/>
<path d="M2138 1402 c-10 -27 -18 -52 -18 -56 0 -3 16 -6 35 -6 41 0 44 14 17
73 l-17 38 -17 -49z"/>
<path d="M1040 1435 l0 -138 51 5 c68 7 109 46 116 112 10 86 -31 138 -120
151 l-47 7 0 -137z"/>
<path d="M3040 1525 l0 -45 49 0 c55 0 76 17 67 54 -6 25 -30 36 -83 36 -32 0
-33 -1 -33 -45z"/>
<path d="M3040 1345 l0 -45 48 0 c53 0 72 12 72 47 0 28 -27 43 -79 43 l-41 0
0 -45z"/>
<path d="M3680 1519 l0 -50 52 3 c48 3 54 6 63 32 8 24 6 31 -14 47 -14 11
-39 19 -62 19 l-39 0 0 -51z"/>
</g>
</svg>
